<?xml version="1.0" encoding="UTF-8"?>
<svg version="1.1" viewBox="0 0 1121 185" xml:space="preserve" xmlns="http://www.w3.org/2000/svg"><path d="m71.051 152.34-67.953-39.81v-12.37l57.14-32.885 6.4912 9.0518-52.757 30.016 60.575 35.758zm97.622-6.9166-6.4951-9.0557 52.757-30.016-29.509-16.792 9.6333-5.7144 30.75 16.32v12.373z" fill="#0078d6" stroke="#0078d6" stroke-opacity=".56471" stroke-width="6.1965"/><path d="m85.784 39.672 37.088 62.89 23.56-22.568 29.018 4.318 35.858-18.537-24.673-61.7-23.206 34.66-54.137-24.982z" fill="#d60000" stroke="#ff0101" stroke-opacity=".56471" stroke-width="3.8223"/><path d="m146.71 181.55-74.273-125.83 8.8223-9.2657 78.155 132.41z" fill="#808080" stroke="#808080" stroke-opacity=".56471" stroke-width="6"/><path d="m68.772 49.38 8.7639-9.9556-6.977-12.503-8.5781 11.361z" fill="#808080" stroke="#808080" stroke-opacity=".56471" stroke-width="6"/><g transform="translate(-65.222 -35.948)" fill="#0078d6" stroke-width="6.541" aria-label="Ret2Shell"><path d="m374.67 174.51v-93.028h52.328l17.442 17.443v17.443l-17.442 17.442h-17.443l34.885 34.885v5.815h-11.628l-40.7-40.7h-5.814v40.7zm11.628-52.328h34.885l11.629-11.629v-5.814l-11.629-11.628h-34.885z" stroke="#0078d6" stroke-opacity=".56471"/><path d="m473.51 157.07v-34.885l17.443-17.443h23.257l17.442 17.443v23.257h-46.512v5.814l11.628 11.628h17.443l5.814-5.814h11.628v5.814l-11.628 11.629h-29.071zm11.629-23.257h34.885v-5.814l-11.629-11.628h-11.628l-11.628 11.628zm81.398-17.442v-11.629h23.257v-23.257h11.629v23.257h23.256v11.629h-23.256v58.142h-11.629v-58.142z" fill="#808080" stroke="#808080" stroke-opacity=".56471"/><path d="m659.56 174.51v-11.629l46.513-46.513v-11.629l-11.628-11.628h-17.443l-5.814 5.814h-11.628v-5.814l11.628-11.629h29.071l17.443 17.443v23.257l-40.7 40.7h40.7v11.628z" fill="#808080" fill-opacity=".37647" stroke="#808080" stroke-opacity=".25098"/><path d="m746.78 157.07v-5.814h11.628l11.629 11.628h23.256l11.629-11.628v-5.814l-11.629-11.629h-29.07l-17.443-17.442v-17.443l17.442-17.443h34.886l17.442 17.443v5.814h-11.628l-11.63-11.628h-23.256l-11.629 11.628v5.814l11.629 11.629h29.07l17.443 17.442v17.443l-17.442 17.443h-34.885z" fill="#f00" stroke="#ff0101" stroke-opacity=".56471"/><path d="m845.62 174.51v-93.028h11.628v23.257h29.07l17.443 17.443v52.328h-11.628v-46.514l-11.629-11.628h-23.256v58.142zm93.026-17.443v-34.885l17.443-17.443h23.257l17.442 17.443v23.257h-46.513v5.814l11.628 11.628h17.443l5.814-5.814h11.628v5.814l-11.628 11.629h-29.071zm11.629-23.257h34.885v-5.814l-11.628-11.628h-11.629l-11.628 11.628zm81.399 40.7v-11.629h23.257v-69.77h-23.257v-11.629h34.885v81.4h23.257v11.628zm93.026 0v-11.629h23.258v-69.77h-23.258v-11.629h34.885v81.4h23.257v11.628z" fill="#808080" stroke="#808080" stroke-opacity=".56471"/></g></svg>
